<svg width="85" height="77" viewBox="0 0 85 77" fill="none" xmlns="http://www.w3.org/2000/svg">
<path d="M53.3651 59.8055C63.2215 59.4932 72.9255 61.5269 82.6817 61.3731C83.6168 61.2988 84.7657 60.3606 84.4035 59.3542C80.9977 49.6493 75.3784 40.9861 69.5294 32.5106C68.9083 31.5624 67.4132 32.1705 67.7755 33.1769C64.9469 35.7166 65.1367 42.609 65.6214 46.5795C60.0295 48.9246 55.5765 52.1015 52.0777 57.1035C51.3751 58.2131 52.1417 59.8085 53.3651 59.8055ZM69.048 47.3047C68.3917 43.7807 69.5345 40.3962 69.8716 37.0568C73.8312 43.7816 77.6614 50.5354 80.4139 57.9395C72.499 57.8153 64.7396 56.5682 56.7956 56.3145C59.867 53.0403 63.718 50.8147 68.0738 49.0195C69.009 48.9452 69.2227 48.0813 69.048 47.3047Z" fill="#6366F1"/>
<path d="M29.5483 48.8409C38.2207 46.891 46.7639 44.9703 55.4363 43.0205C56.7306 42.7294 57.0577 41.1601 56.3071 40.241C51.2538 33.4902 46.0711 26.7685 41.2184 19.7006C40.6265 18.882 39.62 19.2441 39.3772 19.9788C38.8143 19.2895 37.4195 19.7388 37.6524 20.7745C38.3828 25.2337 39.5601 29.8644 38.103 34.2714C36.6171 38.549 31.2289 41.8001 27.724 44.3559C26.9053 44.9479 27.109 45.854 27.6428 46.4139C27.2284 47.5947 27.995 49.1901 29.5483 48.8409ZM41.041 35.2424C42.8151 31.036 41.0458 25.5866 39.7974 21.2439C43.3396 27.9263 47.7297 34.1465 52.22 40.2078C45.6186 41.692 39.0172 43.1762 32.4159 44.6604C35.9499 42.2343 39.3674 39.2904 41.041 35.2424Z" fill="#6366F1"/>
<path d="M7.56868 39.3681C15.8818 37.6348 24.1529 36.3194 31.9584 32.9327C33.0651 32.4117 33.1333 30.9008 32.4118 30.1111C27.3907 24.7129 22.6996 18.9685 17.3192 13.787C16.973 13.4569 16.5557 13.415 16.1673 13.5023C15.7047 12.6544 14.0511 13.1619 14.4134 14.1686C15.442 16.9289 15.4059 19.7926 15.4993 22.6273C15.6218 25.5913 15.5636 25.3325 13.4243 27.3092C11.0554 29.4738 7.72516 32.8062 6.26523 35.9899C4.72798 37.0152 5.49766 39.8337 7.56868 39.3681ZM18.3751 27.5555C18.8346 27.1802 18.9771 26.6043 18.8607 26.0865C18.1495 23.527 18.0558 20.6922 17.6032 18.0743C21.0099 22.34 24.5751 26.7055 28.2116 30.7835C22.72 32.97 16.837 34.0207 10.9831 35.2007C11.1838 34.8836 11.514 34.5376 11.7146 34.2203C13.5789 31.6255 15.7893 29.3607 18.3751 27.5555Z" fill="#6366F1"/>
</svg>
